:FULLY-SPECIFIED
:FORCE-ALL-JOINTS-BE-3DOF
:DEGREES
136
root 7.73526 16.81 -26.3604 -7.0785 15.5159 -0.572593
lfemur -9.02091 12.8281 -16.9697
ltibia 30.0631 -0 0
lfoot -11.3164 -7.04266 0.220883
ltoes 33.5458 -0 0
rfemur -56.6556 -12.5917 5.32904
rtibia 54.2586 -0 0
rfoot 8.67854 2.77001 -0.0934528
rtoes -0.105307 0 0
lowerback 12.2127 -2.95508 -2.44012
upperback 3.80636 -4.11278 0.934838
thorax -2.61249 -2.0699 2.80825
lowerneck -11.5784 -3.2158 0.418132
upperneck 1.1037 -4.41611 1.9116
head 2.42735 -2.13283 0.298339
lclavicle -4.67831e-14 5.62158e-15 2.26375e-30
lhumerus -40.5125 -20.2138 96.2022
lradius 49.1421 -0 0
lwrist 11.8581 0 0
lhand 13.409 10.4643 0.715445
lfingers 7.12502 -0 0
lthumb 38.1865 34.803 0.113538
rclavicle -4.67831e-14 5.62158e-15 2.26375e-30
rhumerus -43.973 -6.63825 -59.9736
rradius 69.6551 -0 0
rwrist -2.38995 0 0
rhand -1.78633 -16.8912 0.176569
rfingers 7.12502 -0 0
rthumb 23.8518 -45.0698 0.253945
137
root 7.69625 16.7842 -26.3363 -6.69734 16.2015 -0.584077
lfemur -9.63188 13.5704 -16.9402
ltibia 30.406 -0 0
lfoot -11.1186 -6.29428 0.244132
ltoes 33.47 -0 0
rfemur -55.4998 -12.4926 4.95665
rtibia 55.0807 -0 0
rfoot 8.73413 1.64603 -0.10332
rtoes 1.64585 -0 0
lowerback 11.8376 -3.10277 -2.44187
upperback 3.65664 -4.30238 0.840304
thorax -2.56188 -2.1661 2.7055
lowerneck -11.5159 -3.36053 0.313159
upperneck 1.13784 -4.60068 2.05214
head 2.4397 -2.2211 0.352141
lclavicle -4.3538e-14 5.15315e-15 2.50133e-30
lhumerus -40.6347 -21.0489 96.7801
lradius 49.2384 -0 0
lwrist 11.8916 0 0
lhand 14.3476 10.9742 0.790944
lfingers 7.12502 -0 0
lthumb 39.0485 34.8913 0.125496
rclavicle -4.3538e-14 5.15315e-15 2.50133e-30
rhumerus -44.317 -7.15114 -60.5921
rradius 70.5758 -0 0
rwrist -2.98965 0 0
rhand -2.62959 -17.0315 0.195164
rfingers 7.12502 -0 0
rthumb 23.0406 -45.2795 0.280686
138
root 7.6556 16.7574 -26.3112 -6.29884 16.916 -0.591015
lfemur -10.2703 14.3442 -16.918
ltibia 30.7633 -0 0
lfoot -10.9122 -5.5143 0.265608
ltoes 33.3909 -0 0
rfemur -54.2965 -12.3816 4.571
rtibia 55.9375 -0 0
rfoot 8.79226 0.474701 -0.112441
rtoes 3.47075 -0 0
lowerback 11.4467 -3.25669 -2.44266
upperback 3.50091 -4.50023 0.742291
thorax -2.50895 -2.26626 2.59832
lowerneck -11.4505 -3.51123 0.20358
upperneck 1.17294 -4.79308 2.19849
head 2.45248 -2.31309 0.408193
lclavicle -4.01562e-14 4.66498e-15 2.72069e-30
lhumerus -40.7724 -21.9179 97.3879
lradius 49.3386 -0 0
lwrist 11.9266 0 0
lhand 15.3264 11.5068 0.860722
lfingers 7.12502 -0 0
lthumb 39.9468 34.9834 0.136545
rclavicle -4.01562e-14 4.66498e-15 2.72069e-30
rhumerus -44.6699 -7.68952 -61.2341
rradius 71.5354 -0 0
rwrist -3.61461 0 0
rhand -3.5084 -17.1779 0.212345
rfingers 7.12502 -0 0
rthumb 22.195 -45.4984 0.305391
139
root 7.61353 16.7295 -26.2852 -5.88485 17.6556 -0.592732
lfemur -10.9331 15.1454 -16.9044
ltibia 31.1333 -0 0
lfoot -10.6982 -4.70693 0.284874
ltoes 33.3091 -0 0
rfemur -53.0525 -12.2583 4.17463
rtibia 56.8242 -0 0
rfoot 8.85261 -0.737661 -0.120628
rtoes 5.35957 -0 0
lowerback 11.042 -3.41601 -2.44237
upperback 3.34003 -4.70529 0.641383
thorax -2.45396 -2.36983 2.48729
lowerneck -11.3825 -3.66708 0.089962
upperneck 1.20877 -4.99235 2.34993
head 2.46562 -2.40833 0.466191
lclavicle -3.66559e-14 4.15972e-15 2.91738e-30
lhumerus -40.9264 -22.8158 98.0234
lradius 49.4424 -0 0
lwrist 11.9628 0 0
lhand 16.3402 12.0593 0.923349
lfingers 7.12502 -0 0
lthumb 40.8765 35.0789 0.146458
rclavicle -3.66559e-14 4.15972e-15 2.91738e-30
rhumerus -45.0292 -8.25084 -61.8959
rradius 72.5285 -0 0
rwrist -4.26145 0 0
rhand -4.41804 -17.3298 0.227759
rfingers 7.12502 -0 0
rthumb 21.3198 -45.7253 0.327556
140
root 7.57025 16.7009 -26.2584 -5.4572 18.4163 -0.58863
lfemur -11.6173 15.9696 -16.9004
ltibia 31.5138 -0 0
lfoot -10.4779 -3.87637 0.301545
ltoes 33.225 -0 0
rfemur -51.7744 -12.1229 3.77006
rtibia 57.7363 -0 0
rfoot 8.91485 -1.98474 -0.127715
rtoes 7.30247 -0 0
lowerback 10.6257 -3.57988 -2.44089
upperback 3.17487 -4.91652 0.538157
thorax -2.39719 -2.47624 2.37295
lowerneck -11.3122 -3.82726 -0.0271248
upperneck 1.24508 -5.19743 2.50561
head 2.47903 -2.5063 0.525831
lclavicle -3.30554e-14 3.63999e-15 3.08749e-30
lhumerus -41.0972 -23.7377 98.6843
lradius 49.5492 -0 0
lwrist 12 0 0
lhand 17.3836 12.6286 0.977559
lfingers 7.12502 -0 0
lthumb 41.8329 35.1773 0.155036
rclavicle -3.30554e-14 3.63999e-15 3.08749e-30
rhumerus -45.3925 -8.83247 -62.574
rradius 73.55 -0 0
rwrist -4.92682 0 0
rhand -5.35377 -17.4862 0.241098
rfingers 7.12502 -0 0
rthumb 20.4194 -45.9591 0.346736
141
root 7.52598 16.6717 -26.2311 -5.01776 19.1943 -0.578196
lfemur -12.3201 16.8125 -16.9069
ltibia 31.903 -0 0
lfoot -10.2523 -3.02683 0.315289
ltoes 33.1389 -0 0
rfemur -50.469 -11.9752 3.35979
rtibia 58.6692 -0 0
rfoot 8.97865 -3.26024 -0.13356
rtoes 9.28962 -0 0
lowerback 10.1997 -3.74749 -2.43815
upperback 3.00631 -5.13284 0.433186
thorax -2.33889 -2.58497 2.2559
lowerneck -11.24 -3.99093 -0.147106
upperneck 1.28166 -5.40728 2.66477
head 2.49265 -2.60652 0.58681
lclavicle -2.93729e-14 3.10843e-15 3.2277e-30
lhumerus -41.2853 -24.6787 99.3683
lradius 49.6584 -0 0
lwrist 12.0381 0 0
lhand 18.4513 13.2118 1.02227
lfingers 7.12502 -0 0
lthumb 42.8111 35.2781 0.162109
rclavicle -2.93729e-14 3.10843e-15 3.2277e-30
rhumerus -45.7574 -9.43169 -63.2648
rradius 74.5949 -0 0
rwrist -5.60733 0 0
rhand -6.31084 -17.6464 0.252096
rfingers 7.12502 -0 0
rthumb 19.4985 -46.1985 0.362551
142
root 7.48095 16.6419 -26.2032 -4.56836 19.9857 -0.561014
lfemur -13.0385 17.67 -16.9247
ltibia 32.2989 -0 0
lfoot -10.0227 -2.16252 0.325838
ltoes 33.0514 -0 0
rfemur -49.1428 -11.8157 2.94629
rtibia 59.6183 -0 0
rfoot 9.04368 -4.55783 -0.138048
rtoes 11.3112 -0 0
lowerback 9.76631 -3.91796 -2.43407
upperback 2.83515 -5.35326 0.327003
thorax -2.27936 -2.69546 2.13669
lowerneck -11.1661 -4.15729 -0.269402
upperneck 1.31828 -5.62086 2.8266
head 2.50639 -2.7085 0.648827
lclavicle -2.56267e-14 2.56766e-15 3.33528e-30
lhumerus -41.4909 -25.6337 100.073
lradius 49.7695 -0 0
lwrist 12.0768 0 0
lhand 19.5379 13.8059 1.05659
lfingers 7.12502 -0 0
lthumb 43.8063 35.3808 0.167538
rclavicle -2.56267e-14 2.56766e-15 3.33528e-30
rhumerus -46.1217 -10.0457 -63.9648
rradius 75.6578 -0 0
rwrist -6.29964 0 0
rhand -7.28451 -17.8095 0.260538
rfingers 7.12502 -0 0
rthumb 18.5615 -46.4422 0.374689
